<?xml version="1.0" encoding="utf-8"?>
<!-- Generator: Adobe Illustrator 26.5.0, SVG Export Plug-In . SVG Version: 6.00 Build 0)  -->
<svg version="1.0" id="Layer_1" xmlns="http://www.w3.org/2000/svg" xmlns:xlink="http://www.w3.org/1999/xlink" x="0px" y="0px"
	 width="250px" height="120px" viewBox="0 0 250 120" enable-background="new 0 0 250 120" xml:space="preserve">
<g>
	<g>
		<g>
			<ellipse fill="#232B38" cx="59.1" cy="63.2" rx="34.6" ry="30"/>
			<path fill="#BF94E4" d="M79.7,98.6c-0.9,0-1.8-0.1-2.5-0.2c-0.3,0-0.6-0.1-0.8-0.1c-1.1,0-1.9-0.8-2-2c-0.1-1.1,0.7-2.4,2.3-2.7
				c0.6-0.1,0.9-0.3,0.8-3.9c-0.1-2.6-2.6-4.2-5.1-5.4c-1.6-0.8-3.2-3-5-5.4c-1.2-1.6-2.4-3.2-3.2-3.8c-1.7-1.2-4.7-0.5-9.1,2.1
				c-4,2.4-9.1,1.9-11.4,1.5l-1.3,9.7c0,0.9-0.4,8.5-5.8,9c-2.6,0.2-4.3-0.1-5.1-1c-0.3-0.4-0.5-0.8-0.5-1.2c-0.1-0.4-0.2-1,0.1-1.7
				c0.4-1.1,1.5-2.1,3.2-2.9c1.3-0.6,1.9-6.2,0.7-13.8c-4-2-4.3-7.4-4.2-10.2c-1,0.2-2.2,0.2-3.6-0.6c-2.3-1.2-1.7-4.1-1-5.9
				c-0.8,0-1.9,0.2-2.8,0.5c-2.2,0.7-4,0.6-5.4-0.4c-1.9-1.3-2.4-3.8-2.5-4.7c-0.3-0.4-0.4-1-0.2-1.5c0.4-1.5,2.4-2.5,4-3.1
				c2-0.7,2.3-2.2,2.3-2.3c0,0,0-0.1,0-0.1c0.1-0.2,1.5-5.1,8.9-5.3c0.1,0,0.1,0,0.2,0c5.9,0,11.4,7.4,13.2,10.1
				c3.4-1,17.1-5.8,20-16.3c1.8-6.7,5.9-11.7,11.4-14.2c5.4-2.4,11.6-2.2,17.5,0.7c0.6,0.3,0.8,0.9,0.5,1.5
				c-0.3,0.6-0.9,0.8-1.5,0.5C86.5,23.2,81,23,76.2,25.1c-4.9,2.2-8.5,6.8-10.2,12.8C62.5,51.2,44.5,55.8,43.7,56
				c-0.5,0.1-1-0.1-1.2-0.5c-0.6-1-6.3-9.8-11.7-9.8c0,0-0.1,0-0.1,0c-5.4,0.2-6.6,3.3-6.8,3.7c-0.1,0.6-0.8,2.9-3.8,3.9
				c-1.6,0.6-2.3,1.1-2.5,1.4c0.1,0.2,0.2,0.4,0.2,0.6c0,0,0.1,2.3,1.6,3.3c0.8,0.6,2,0.6,3.5,0.1c0.7-0.2,3.9-1.1,5.6-0.2
				c0.5,0.3,0.7,1,0.5,1.5c-0.6,1.2-1.4,3.7-0.5,4.2c1.7,0.9,3.1,0,3.1-0.1c0.4-0.2,0.8-0.3,1.2,0c0.4,0.2,0.6,0.7,0.5,1.1
				c0,0.1-1.1,8.2,3.3,9.9c0.4,0.1,0.6,0.5,0.7,0.9c0.5,3.5,2,15-1.9,16.8c-1.9,0.9-2.1,1.7-2,1.9c0.1,0.1,0.1,0.2,0.1,0.4
				c0.3,0.1,1,0.4,3.1,0.2c3.6-0.3,3.8-6.8,3.8-6.9c0,0,0-0.1,0-0.1l1.5-10.9c0-0.3,0.2-0.6,0.5-0.8c0.3-0.2,0.6-0.2,0.9-0.1
				c0.1,0,6.5,1.7,10.9-1c5.2-3.2,9-3.9,11.5-2c1.1,0.8,2.3,2.4,3.7,4.3c1.4,1.9,3.1,4.2,4.2,4.8c1.8,0.9,6.2,3.1,6.3,7.3
				c0.1,2.9,0.2,5.7-2.7,6.2c-0.1,0-0.3,0.1-0.4,0.2c0,0,0,0,0,0c0.2,0,0.4,0,0.7,0.1c3.8,0.4,4.4-0.1,4.5-0.4
				c0.2-0.8,0.1-2.4,0-3.9c-0.1-2.2-0.3-4.5,0.2-5.9c0.1-0.3-0.4-0.9-1.3-1.7c-1.4-1.4-3.3-3.2-3.3-6.4c0-2.5,0.7-3.6,1.3-4.5
				c0.7-1,1.2-1.9,0.9-5.2c-0.4-3.2-1.2-4.3-1.9-5.1c-0.7-0.9-1.4-1.7-0.8-3.7c0.9-3.1,4.6-13.6,4.8-14.1c0.5-1.6,1.5-6.6-0.3-8
				c-0.7-0.6-1.6-1-2.3-1.2c1.5,1.4,3.2,4.3,1,9.5c-0.8,2-1.5,4-2,5.8c-1.2,3.8-2.2,6.8-4.1,7.8c-0.8,0.4-1.6,0.4-2.5,0
				c-3.3-1.3-5.2-1.1-12.9,0l-0.3,0c-2,0.3-3.8,0.3-5.6,0c-0.6-0.1-1-0.7-0.9-1.3c0.1-0.6,0.7-1,1.3-0.9c1.6,0.3,3.2,0.3,4.9,0
				l0.3,0c7.8-1.1,10.1-1.4,14,0.1c0.4,0.2,0.6,0.1,0.8,0c1.1-0.5,2-3.5,3-6.4c0.6-1.9,1.3-4,2.1-6c2.4-5.8-1-7.5-1.4-7.7
				c-0.1,0-0.2-0.1-0.3-0.2c-1.5-1.3-0.7-2.4-0.5-2.6c1.2-1.4,4.7-0.5,6.9,1.2c3.3,2.6,1.3,9.7,1,10.4c-0.1,0.2-3.9,11-4.8,14
				c-0.3,0.9-0.2,1,0.4,1.7c0.8,1,1.9,2.4,2.3,6.3c0.5,4.1-0.4,5.4-1.2,6.7c-0.5,0.8-1,1.5-1,3.3c0,2.2,1.4,3.6,2.6,4.8
				c1.1,1.1,2.4,2.3,1.8,4c-0.4,1.1-0.2,3.2-0.1,5.1c0.1,1.8,0.2,3.4,0,4.5C83.7,98.2,81.6,98.6,79.7,98.6z"/>
		</g>
		<g>
			<path fill="#232B38" d="M106.5,81.3c-0.2-0.3-0.2-0.9-0.1-1.8c0.1-0.6,0.5-2.2,1.3-4.6c0.7-2,0.9-3.5,0.8-4.5
				c-0.2-1.3-0.9-3.3-2.2-6.2c-1.3-2.8-2-4.9-2.2-6.3c-0.1-0.4,0.1-0.8,0.6-1.1c0.4-0.3,0.9-0.5,1.4-0.5c0.3,0,0.6,0.1,0.8,0.2
				c0.7,0.6,1.3,2,1.9,4.3c0.6,2.3,1.1,3.8,1.7,4.5c0.4-0.5,0.9-1.9,1.6-4.2c0.6-2,1.3-3.3,2.1-3.9c0.4-0.3,0.8-0.4,1.3-0.4
				c0.9,0,1.4,0.3,1.4,1c0,0.1,0,0.3-0.1,0.4c-0.9,2.3-2.3,5.6-4.1,9.9c-0.1,0.3-0.2,0.6-0.2,1c0,0.7,0.2,1.3,0.7,1.8
				c0.1,0.1,0.1,0.2,0.1,0.4c0,0.3-0.1,0.7-0.3,1.1c-0.1,0.1-0.4,0.2-1,0.4c-0.4,0.1-0.7,0.4-0.8,0.7c-0.4,1.8-0.9,4.3-1.7,7.6
				c-0.2,0.6-0.7,0.8-1.5,0.8C107.3,82,106.8,81.7,106.5,81.3z"/>
			<path fill="#232B38" d="M125.6,62.4c1.7,0,3.1,0.8,4.4,2.4c1,1.4,1.6,2.9,1.6,4.6c0,1.3-0.3,2.6-0.9,3.8
				c-0.6,1.2-1.5,2.2-2.6,2.9c-1.3,0.8-2.6,1.3-4,1.3c-1.3,0-2.4-0.4-3.4-1.1c-2-1.5-3-3.3-3-5.5c0-1.9,0.9-3.8,2.6-5.7
				C121.9,63.4,123.7,62.4,125.6,62.4z M121.6,71.5c0.5,2.1,1.3,3.2,2.7,3.2c0.3,0,0.6-0.1,0.9-0.2c1.8-0.8,2.8-2.4,2.8-4.7
				c0-0.6-0.1-1.1-0.2-1.6c-0.3-1.1-1.3-1.7-2.9-1.7c-0.2,0-0.5,0-0.7,0.1c-0.6,0.1-1.2,0.8-1.8,2.1
				C121.8,69.9,121.5,70.8,121.6,71.5z"/>
			<path fill="#232B38" d="M135.8,77c-2.3-2.4-3.5-5.6-3.5-9.5c0-2.1,0.3-4.2,1-6.4c0.2-0.5,0.5-0.9,0.9-1.3c0.5-0.3,1-0.5,1.5-0.5
				c0.4,0,0.8,0.1,1.1,0.3c0.4,0.4,0.6,0.8,0.6,1.3c0,0.1,0,0.3-0.1,0.4c-0.8,1.9-1.3,4-1.3,6.2c0,3.6,1.1,6,3.3,7.3
				c0.5,0.3,1,0.4,1.4,0.4c1,0,1.9-0.7,2.6-2c0.6-1.1,1-2.3,1.2-3.7c0.2-0.8,0.3-1.7,0.3-2.7c0-0.8-0.1-1.9-0.2-3.4
				c-0.2-1.5-0.2-2.7-0.2-3.4c-0.1-0.6,0.2-1,0.9-1.4c0.4-0.2,1.1-0.4,2.3-0.7c0,0.2,0.1,0.3,0.4,0.4c0.2,0.1,0.4,0.2,0.4,0.3
				c0.3,2.3,0.5,4.2,0.5,5.8c0,3.9-0.9,7.2-2.7,9.8c-0.8,1.2-1.9,2.1-3.2,2.9c-1.4,0.8-2.7,1.3-4,1.3
				C137.7,78.4,136.6,77.9,135.8,77z"/>
			<path fill="#232B38" d="M149.8,67.7c0-0.7,0.2-1.8,0.6-3.2c0.4-1.4,0.6-2.4,0.6-3.1c0-0.5-0.1-1-0.3-1.4
				c-0.2-1.1-0.3-1.6-0.3-1.7c0-0.4,0.2-0.8,0.5-0.9c1.2-0.8,2.6-1.1,4.1-1.1c1.6,0,3.2,0.5,4.8,1.4c1.5,0.9,2.8,2.1,3.7,3.6
				c0.3,0.5,0.4,0.9,0.4,1.4c0,1.4-1.3,2.9-3.9,4.7c0.8,4.3,2,7.9,3.5,10.8c0.1,0.1,0.1,0.2,0.1,0.3c0,0.3-0.2,0.5-0.5,0.7
				c-0.4,0.2-0.8,0.3-1.2,0.3c-0.4,0-0.7-0.1-1-0.3c-1.1-0.9-2-2.6-2.6-5c-0.7-2.6-1.5-4.4-2.3-5.3c-0.2-0.2-0.7-0.4-1.2-0.4
				c-0.8,0-1.2,0.2-1.4,0.5c-0.2,0.6-0.3,1.2-0.3,1.8c0,0.8,0.2,1.9,0.5,3.4c0.4,1.6,0.6,2.7,0.6,3.4c0,0.3-0.2,0.6-0.8,0.9
				c-0.6,0.2-1.1,0.3-1.6,0.2c-0.4-0.1-0.8-0.5-1.1-1.1c-0.5-1.3-0.8-3-0.9-4.9C149.8,73.2,149.8,71.5,149.8,67.7z M154,63
				c-0.4,1.1-0.6,1.8-0.6,2c0,0.5,0.6,0.8,1.8,0.8c1.8,0,3.4-0.6,4.7-1.7c0.5-0.3,0.8-0.6,0.8-0.9c0-0.1,0-0.2-0.1-0.3
				c-0.9-1.8-2.6-2.9-5.2-3.2c-0.6,0-0.9,0.4-1.1,1.2C154.2,61.6,154.1,62.3,154,63z"/>
			<path fill="#232B38" d="M174.6,77.4c-2.3-3.1-3.4-6.8-3.4-11c0-1.3,0.1-2.6,0.3-3.8c0.1-0.5,0.4-0.9,0.9-1.2
				c0.5-0.4,0.9-0.5,1.4-0.5c0.5,0,0.9,0.2,1.1,0.6c0.4,0.6,0.6,1.3,0.6,2.1c0,0.4-0.1,1-0.2,1.8s-0.2,1.4-0.2,1.9
				c0,0.4,0,0.8,0.1,1.2c0.2,0.8,0.3,1.7,0.5,2.5c0.2,0.9,0.6,1.7,1.1,2.3c0.7-0.7,1.3-1.9,2-3.7c0.7-1.7,1.3-2.9,1.8-3.6
				c0.6-0.8,1.3-1.2,2-1.2c0.8,0,1.7,0.6,2.5,1.8c0.7,0.9,1.2,2.1,1.6,3.4c0,0.2,0.1,0.5,0.3,0.8c0.2,0.3,0.4,0.4,0.5,0.3
				c0.8-1,1.3-2.4,1.3-4c0-0.6-0.1-1.4-0.2-2.6c-0.1-1.1-0.2-2-0.2-2.6c0-0.8,0.1-1.4,0.2-2.1c0.1-0.3,0.4-0.6,0.8-0.8
				c0.4-0.2,0.8-0.3,1.2-0.3c0.3,0,0.5,0.1,0.7,0.2c0.9,0.7,1.4,1.9,1.4,3.4c0,0.4,0,1-0.1,1.9c-0.1,0.8-0.1,1.4-0.1,1.8
				c0,2.3-0.5,4.8-1.5,7.4c-0.3,0.6-0.5,1-0.6,1.2c-0.3,0.5-0.6,0.8-0.9,1.1c-0.6,0.5-1.1,0.7-1.6,0.7c-1.2,0-2.2-0.9-3.1-2.8
				c-0.9-1.8-1.6-3.1-2.3-4c-0.4,0.5-0.9,1.6-1.7,3.2c-0.7,1.5-1.4,2.6-2,3.2c-0.8,1-1.8,1.5-3,1.5C175.4,77.5,175,77.5,174.6,77.4z
				"/>
			<path fill="#232B38" d="M201.4,62.4c1.7,0,3.1,0.8,4.4,2.4c1,1.4,1.6,2.9,1.6,4.6c0,1.3-0.3,2.6-0.9,3.8
				c-0.6,1.2-1.5,2.2-2.6,2.9c-1.3,0.8-2.6,1.3-4,1.3c-1.3,0-2.4-0.4-3.4-1.1c-2-1.5-3-3.3-3-5.5c0-1.9,0.9-3.8,2.6-5.7
				C197.7,63.4,199.5,62.4,201.4,62.4z M197.5,71.5c0.5,2.1,1.3,3.2,2.7,3.2c0.3,0,0.6-0.1,0.9-0.2c1.8-0.8,2.8-2.4,2.8-4.7
				c0-0.6-0.1-1.1-0.2-1.6c-0.3-1.1-1.3-1.7-2.9-1.7c-0.2,0-0.5,0-0.7,0.1c-0.6,0.1-1.2,0.8-1.8,2.1
				C197.6,69.9,197.3,70.8,197.5,71.5z"/>
			<path fill="#232B38" d="M216.1,62.4c1.7,0,3.1,0.8,4.4,2.4c1,1.4,1.6,2.9,1.6,4.6c0,1.3-0.3,2.6-0.9,3.8
				c-0.6,1.2-1.5,2.2-2.6,2.9c-1.3,0.8-2.6,1.3-4,1.3c-1.3,0-2.4-0.4-3.4-1.1c-2-1.5-3-3.3-3-5.5c0-1.9,0.9-3.8,2.6-5.7
				C212.4,63.4,214.2,62.4,216.1,62.4z M212.1,71.5c0.5,2.1,1.3,3.2,2.7,3.2c0.3,0,0.6-0.1,0.9-0.2c1.8-0.8,2.8-2.4,2.8-4.7
				c0-0.6-0.1-1.1-0.2-1.6c-0.3-1.1-1.3-1.7-2.9-1.7c-0.2,0-0.5,0-0.7,0.1c-0.6,0.1-1.2,0.8-1.8,2.1C212.3,69.9,212,70.8,212.1,71.5
				z"/>
			<path fill="#232B38" d="M224.1,64.6c-0.7-2.7-1-4.9-0.8-6.6c0-0.2,0.1-0.4,0.2-0.6c0.1-0.2,0.3-0.3,0.4-0.3
				c1.3-0.5,2.7-0.7,4.2-0.7c2.2,0,4.2,0.5,6.1,1.5c0.3,0.2,0.5,0.4,0.5,0.7c0,0.5-0.4,1-1.3,1.5c-0.4,0.2-0.8,0.3-1.2,0.3
				c-0.5,0-1.3-0.2-2.5-0.7c-1-0.4-1.9-0.6-2.5-0.5c-0.1,0.5-0.1,1-0.1,1.6c0,1.1,0.2,2.4,0.5,3.9c0.3,1.3,0.6,2.5,0.9,3.8
				c0.3,0,0.9,0,1.7-0.1c0.9-0.1,1.6-0.1,2-0.1c1.5,0,2.2,0.5,2.1,1.5c0,0.7-0.8,1-2.2,1.1c-1.6,0.1-2.4,0.3-2.6,0.7
				c-0.2,0.4-0.3,0.7-0.3,1.1c0,0.6,0.2,1.4,0.7,2.4c0.6,1.3,0.9,2.1,1,2.5c0.1,0.2,0.1,0.4,0.1,0.6c0,0.5-0.2,0.8-0.6,1.1
				c-0.4,0.3-0.8,0.4-1.3,0.4c-0.4,0-0.8-0.1-1-0.3c-0.7-0.7-1.2-1.9-1.6-3.7c-0.4-1.8-0.8-3-1.4-3.7c0-0.1-0.1-0.1-0.3-0.1
				c0,0-0.2,0-0.6,0.1c-0.4,0.1-0.6,0.1-0.8,0c-0.7-0.2-1-0.5-1-1c0-0.2,0.1-0.3,0.2-0.5c0.1-0.2,0.5-0.4,1.1-0.8
				c0.5-0.3,0.8-0.6,0.9-0.8c0.1-0.2,0.1-0.5,0.1-0.8c0-0.4-0.1-1-0.3-1.6C224.4,65.7,224.2,65.2,224.1,64.6z"/>
		</g>
	</g>
	
		<ellipse transform="matrix(0.3294 -0.9442 0.9442 0.3294 5.2348 164.889)" fill="#232B38" cx="118.7" cy="78.8" rx="1.9" ry="1.3"/>
	
		<ellipse transform="matrix(0.9942 -0.1077 0.1077 0.9942 -7.9397 13.6754)" fill="#232B38" cx="122.6" cy="80.3" rx="1.1" ry="1.9"/>
	
		<ellipse transform="matrix(0.9942 -0.1077 0.1077 0.9942 -7.9469 14.1289)" fill="#232B38" cx="126.8" cy="80.6" rx="1.3" ry="1.9"/>
	
		<ellipse transform="matrix(0.901 -0.4337 0.4337 0.901 -21.1223 63.9958)" fill="#232B38" cx="129.7" cy="78.3" rx="0.9" ry="1.2"/>
</g>
</svg>
