<svg id="Layer_1" data-name="Layer 1" xmlns="http://www.w3.org/2000/svg" viewBox="0 0 78.04 77.45"><defs><style>.cls-1{fill:#232b38;}.cls-2{fill:#bf94e4;}</style></defs><ellipse class="cls-1" cx="43.64" cy="42.05" rx="34.4" ry="30"/><path class="cls-2" d="M150.1,98.73a17.79,17.79,0,0,1-2.48-.2c-.3,0-.6-.1-.8-.1a2,2,0,0,1-2-2,2.63,2.63,0,0,1,2.29-2.7c.6-.1.89-.3.8-3.9-.1-2.6-2.59-4.2-5.07-5.4-1.59-.8-3.19-3-5-5.4a23.86,23.86,0,0,0-3.19-3.8c-1.69-1.2-4.67-.5-9,2.1-4,2.4-9.05,1.9-11.33,1.5l-1.3,9.7c0,.9-.39,8.5-5.76,9-2.59.2-4.28-.1-5.07-1a2.08,2.08,0,0,1-.5-1.2,2.56,2.56,0,0,1,.1-1.7,5.77,5.77,0,0,1,3.18-2.9c1.29-.6,1.89-6.2.7-13.8-4-2-4.28-7.4-4.18-10.2a4.89,4.89,0,0,1-3.58-.6c-2.28-1.2-1.69-4.1-1-5.9a9.56,9.56,0,0,0-2.78.5c-2.19.7-4,.6-5.37-.4a6.85,6.85,0,0,1-2.49-4.7,1.62,1.62,0,0,1-.2-1.5c.4-1.5,2.39-2.5,4-3.1a3.18,3.18,0,0,0,2.29-2.3v-.1c.1-.2,1.49-5.1,8.84-5.3h.2c5.87,0,11.34,7.4,13.12,10.1,3.38-1,17-5.8,19.89-16.3,1.79-6.7,5.86-11.7,11.33-14.2a20.11,20.11,0,0,1,17.39.7,1.12,1.12,0,0,1-1,2c-5.27-2.3-10.74-2.5-15.51-.4S138.17,32,136.48,38c-3.48,13.3-21.37,17.9-22.16,18.1a1.08,1.08,0,0,1-1.2-.5c-.59-1-6.26-9.8-11.63-9.8h-.1c-5.37.2-6.56,3.3-6.76,3.7a5.33,5.33,0,0,1-3.77,3.9,5.68,5.68,0,0,0-2.49,1.4,1.42,1.42,0,0,1,.2.6s.1,2.3,1.59,3.3c.79.6,2,.6,3.48.1.69-.2,3.88-1.1,5.57-.2a1.29,1.29,0,0,1,.49,1.5c-.59,1.2-1.39,3.7-.49,4.2a2.78,2.78,0,0,0,3.08-.1,1,1,0,0,1,1.19,0,1,1,0,0,1,.5,1.1c0,.1-1.1,8.2,3.28,9.9a1.1,1.1,0,0,1,.69.9c.5,3.5,2,15-1.89,16.8-1.88.9-2.08,1.7-2,1.9s.1.2.1.4a6.32,6.32,0,0,0,3.08.2c3.58-.3,3.78-6.8,3.78-6.9v-.1l1.49-10.9a1,1,0,0,1,.49-.8,1,1,0,0,1,.9-.1c.1,0,6.46,1.7,10.83-1,5.17-3.2,8.95-3.9,11.44-2a21.61,21.61,0,0,1,3.67,4.3c1.4,1.9,3.09,4.2,4.18,4.8,1.79.9,6.16,3.1,6.26,7.3.1,2.9.2,5.7-2.68,6.2a.76.76,0,0,0-.4.2h0a2,2,0,0,1,.7.1c3.77.4,4.37-.1,4.47-.4a16.65,16.65,0,0,0,0-3.9c-.1-2.2-.3-4.5.2-5.9.1-.3-.4-.9-1.29-1.7-1.4-1.4-3.29-3.2-3.29-6.4a7,7,0,0,1,1.3-4.5c.69-1,1.19-1.9.89-5.2s-1.19-4.3-1.89-5.1a3.41,3.41,0,0,1-.79-3.7c.89-3.1,4.57-13.6,4.77-14.1.5-1.6,1.49-6.6-.3-8a6.26,6.26,0,0,0-2.29-1.2c1.5,1.4,3.19,4.3,1,9.5a57.24,57.24,0,0,0-2,5.8c-1.19,3.8-2.19,6.8-4.07,7.8a2.73,2.73,0,0,1-2.49,0c-3.28-1.3-5.17-1.1-12.82,0H129a17.34,17.34,0,0,1-5.57,0,1.12,1.12,0,0,1,.4-2.2,13.29,13.29,0,0,0,4.87,0h.3c7.75-1.1,10-1.4,13.92.1a.73.73,0,0,0,.79,0c1.09-.5,2-3.5,3-6.4.6-1.9,1.29-4,2.09-6,2.39-5.8-1-7.5-1.39-7.7-.1,0-.2-.1-.3-.2-1.49-1.3-.7-2.4-.5-2.6,1.2-1.4,4.68-.5,6.86,1.2,3.28,2.6,1.29,9.7,1,10.4-.1.2-3.88,11-4.78,14-.29.9-.19,1,.4,1.7.8,1,1.89,2.4,2.29,6.3.5,4.1-.4,5.4-1.19,6.7a5.15,5.15,0,0,0-1,3.3c0,2.2,1.39,3.6,2.59,4.8s2.38,2.3,1.79,4c-.4,1.1-.2,3.2-.1,5.1a22.25,22.25,0,0,1,0,4.5C154.08,98.33,152,98.73,150.1,98.73Z" transform="translate(-85.98 -21.27)"/></svg>