<?xml version="1.0" encoding="utf-8"?>
<!-- Generator: Adobe Illustrator 26.5.0, SVG Export Plug-In . SVG Version: 6.00 Build 0)  -->
<svg version="1.0" id="Layer_1" xmlns="http://www.w3.org/2000/svg" xmlns:xlink="http://www.w3.org/1999/xlink" x="0px" y="0px"
	 width="1336.8px" height="50px" viewBox="0 0 1336.8 50" enable-background="new 0 0 1336.8 50" xml:space="preserve">
<g>
	<g>
		<ellipse fill="#232B38" cx="670.4" cy="26.5" rx="15.6" ry="13.5"/>
		<path fill="#B694C4" d="M679.7,42.3c-0.4,0-0.8,0-1.1-0.1c-0.1,0-0.3,0-0.3,0c-0.5,0-0.8-0.4-0.9-0.9c0-0.5,0.3-1.1,1-1.2
			c0.3,0,0.4-0.1,0.4-1.8c0-1.2-1.2-1.9-2.3-2.4c-0.7-0.4-1.5-1.4-2.2-2.4c-0.5-0.7-1.1-1.4-1.4-1.7c-0.8-0.5-2.1-0.2-4.1,1
			c-1.8,1.1-4.1,0.9-5.1,0.7l-0.6,4.4c0,0.4-0.2,3.8-2.6,4c-1.2,0.1-1.9,0-2.3-0.4c-0.2-0.2-0.2-0.4-0.2-0.5c0-0.2-0.1-0.4,0-0.8
			c0.2-0.5,0.7-0.9,1.4-1.3c0.6-0.3,0.8-2.8,0.3-6.2c-1.8-0.9-1.9-3.3-1.9-4.6c-0.4,0.1-1,0.1-1.6-0.3c-1-0.6-0.8-1.9-0.5-2.6
			c-0.4,0-0.9,0.1-1.3,0.2c-1,0.3-1.8,0.2-2.4-0.2c-0.9-0.6-1.1-1.7-1.1-2.1c-0.1-0.2-0.2-0.4-0.1-0.7c0.2-0.7,1.1-1.1,1.8-1.4
			c0.9-0.3,1-1,1-1c0,0,0,0,0-0.1c0-0.1,0.7-2.3,4-2.4c0,0,0.1,0,0.1,0c2.7,0,5.1,3.3,5.9,4.6c1.5-0.5,7.7-2.6,9-7.3
			c0.8-3,2.6-5.3,5.1-6.4c2.4-1.1,5.2-1,7.9,0.3c0.2,0.1,0.4,0.4,0.2,0.7c-0.1,0.2-0.4,0.4-0.7,0.2c-2.4-1.2-4.9-1.3-7-0.3
			c-2.2,1-3.8,3-4.6,5.7c-1.6,6-9.7,8-10,8.1c-0.2,0.1-0.4,0-0.5-0.2c-0.3-0.5-2.8-4.4-5.3-4.4c0,0,0,0-0.1,0c-2.4,0.1-3,1.5-3,1.6
			c-0.1,0.2-0.4,1.3-1.7,1.8c-0.7,0.3-1,0.5-1.1,0.6c0.1,0.1,0.1,0.2,0.1,0.3c0,0,0.1,1.1,0.7,1.5c0.4,0.3,0.9,0.3,1.6,0.1
			c0.3-0.1,1.8-0.5,2.5-0.1c0.2,0.1,0.3,0.4,0.2,0.7c-0.3,0.5-0.6,1.7-0.2,1.9c0.7,0.4,1.4,0,1.4,0c0.2-0.1,0.4-0.1,0.5,0
			c0.2,0.1,0.3,0.3,0.2,0.5c0,0-0.5,3.7,1.5,4.4c0.2,0.1,0.3,0.2,0.3,0.4c0.2,1.6,0.9,6.7-0.9,7.5c-0.8,0.4-0.9,0.7-0.9,0.9
			c0,0.1,0.1,0.1,0.1,0.2c0.1,0.1,0.5,0.2,1.4,0.1c1.6-0.2,1.7-3.1,1.7-3.1c0,0,0,0,0-0.1l0.7-4.9c0-0.1,0.1-0.3,0.2-0.3
			c0.1-0.1,0.3-0.1,0.4-0.1c0,0,2.9,0.8,4.9-0.4c2.4-1.4,4-1.7,5.2-0.9c0.5,0.3,1,1.1,1.6,1.9c0.6,0.8,1.4,1.9,1.9,2.1
			c0.8,0.4,2.8,1.4,2.8,3.3c0,1.3,0.1,2.6-1.2,2.8c-0.1,0-0.1,0-0.2,0.1c0,0,0,0,0,0c0.1,0,0.2,0,0.3,0c1.7,0.2,2,0,2-0.2
			c0.1-0.4,0-1.1,0-1.8c-0.1-1-0.1-2,0.1-2.7c0.1-0.1-0.2-0.4-0.6-0.8c-0.6-0.6-1.5-1.4-1.5-2.9c0-1.1,0.3-1.6,0.6-2
			c0.3-0.5,0.5-0.9,0.4-2.3c-0.2-1.4-0.6-1.9-0.8-2.3c-0.3-0.4-0.6-0.8-0.3-1.7c0.4-1.4,2.1-6.1,2.2-6.3c0.2-0.7,0.7-3-0.1-3.6
			c-0.3-0.3-0.7-0.4-1-0.5c0.7,0.6,1.4,1.9,0.5,4.3c-0.4,0.9-0.7,1.8-0.9,2.6c-0.5,1.7-1,3.1-1.9,3.5c-0.4,0.2-0.7,0.2-1.1,0
			c-1.5-0.6-2.3-0.5-5.8,0l-0.1,0c-0.9,0.1-1.7,0.1-2.5,0c-0.3,0-0.5-0.3-0.4-0.6c0-0.3,0.3-0.5,0.6-0.4c0.7,0.1,1.4,0.1,2.2,0
			l0.1,0c3.5-0.5,4.5-0.6,6.3,0.1c0.2,0.1,0.3,0,0.3,0c0.5-0.2,0.9-1.6,1.3-2.9c0.3-0.8,0.6-1.8,0.9-2.7c1.1-2.6-0.4-3.4-0.6-3.5
			c0,0-0.1-0.1-0.1-0.1c-0.7-0.6-0.3-1.1-0.2-1.2c0.5-0.6,2.1-0.2,3.1,0.5c1.5,1.2,0.6,4.3,0.5,4.7c0,0.1-1.7,4.9-2.1,6.3
			c-0.1,0.4-0.1,0.4,0.2,0.8c0.3,0.4,0.9,1.1,1,2.8c0.2,1.8-0.2,2.4-0.5,3c-0.2,0.4-0.4,0.7-0.4,1.5c0,1,0.6,1.6,1.2,2.1
			c0.5,0.5,1.1,1,0.8,1.8c-0.2,0.5-0.1,1.4-0.1,2.3c0,0.8,0.1,1.5,0,2C681.5,42.1,680.6,42.3,679.7,42.3z"/>
	</g>
	<line fill="none" stroke="#232B38" stroke-width="3" stroke-miterlimit="10" x1="391.5" y1="25" x2="634.3" y2="25"/>
	<line fill="none" stroke="#232B38" stroke-width="3" stroke-miterlimit="10" x1="702.5" y1="25" x2="945.3" y2="25"/>
</g>
</svg>
